<svg xmlns="http://www.w3.org/2000/svg" viewBox="0 0 76.968 76.968"><defs><style>.a,.b,.c{fill:none;stroke:#fff;stroke-width:3px;}.a,.c{stroke-miterlimit:10;}.b{stroke-linejoin:round;}.c{stroke-linecap:round;}</style></defs><g transform="translate(-111.5 -13.5)"><path class="a" d="M225.74,385.965a107.166,107.166,0,0,1,8.218-11.829,3.954,3.954,0,0,1,3.744-1.45c8.252,1.38,18.2,4.252,27.456,7.321" transform="translate(-90.805 -300.192)"/><path class="b" d="M137.94,219.008c.892-2.26,1.764-4.08,2.323-5.18a2.417,2.417,0,0,1,1.748-1.3c3.647-.626,14.819-4.046,14.9-22.53a1.59,1.59,0,0,1,1.8-1.576c2.85.379,8.44.885,12.361-.278,5.472-1.622,14.389-.406,21.077,3.647s11.754,13.577,14.986,16.618a25.76,25.76,0,0,1,4.029,4.75" transform="translate(-24.227 -159.773)"/><path class="c" d="M236.263,237.574s-.382-40.849-16.593-43.894" transform="translate(-86.202 -164.494)"/><circle class="a" cx="36.984" cy="36.984" r="36.984" transform="translate(113 15)"/></g></svg>